<?xml version="1.0" standalone="no"?>
<!DOCTYPE svg PUBLIC "-//W3C//DTD SVG 1.1//EN" "http://www.w3.org/Graphics/SVG/1.1/DTD/svg11.dtd" >
<svg xmlns="http://www.w3.org/2000/svg">
<metadata></metadata>
<defs>
<font id="switzera_adfregular" horiz-adv-x="1200" >
<font-face units-per-em="2048" ascent="1638" descent="-410" />
<missing-glyph horiz-adv-x="665" />
<glyph unicode="AE" horiz-adv-x="1847" d="M18 0l592 1477h1149v-168h-704v-439h676v-168h-676v-536h723v-166h-914v377h-502l-149 -377h-195zM430 545h434v764l-123 10z" />
<glyph unicode="ae" horiz-adv-x="1886" d="M94 293q0 170 121 256t358 86h246v16q0 111 -80 175.5t-223 64.5q-180 0 -344 -82v152q192 71 363 71q133 0 234.5 -44t154.5 -122q144 166 397 166q211 0 338 -131t127 -356v-82h-805q12 -169 109 -260.5t272 -91.5q195 0 383 96v-156q-183 -76 -393 -76 q-324 0 -467 213q-141 -213 -412 -213q-179 0 -279 83t-100 235zM270 303q0 -90 60.5 -141t167.5 -51q143 0 232 98t89 260v37h-174q-211 0 -293 -45.5t-82 -157.5zM987 592h623q0 133 -78.5 216t-208.5 83q-145 0 -233 -77.5t-103 -221.5z" />
<glyph unicode="OE" horiz-adv-x="2011" d="M92 737q0 362 214 551t624 189h993v-168h-704v-439h675v-168h-675v-536h723v-166h-1012q-410 0 -624 185t-214 552zM295 737q0 -571 608 -571h123v1143h-123q-608 0 -608 -572z" />
<glyph unicode="oe" horiz-adv-x="1990" d="M111 502q0 247 129.5 388.5t357.5 141.5q269 0 397 -198q72 96 183 147t247 51q212 0 338.5 -130.5t126.5 -356.5v-82h-803q11 -169 106.5 -259.5t272.5 -90.5q191 0 383 94v-156q-183 -76 -393 -76q-304 0 -459 195q-133 -195 -399 -195q-227 0 -357 139.5t-130 387.5z M295 502q0 -180 79.5 -284.5t223.5 -104.5q138 0 220.5 104.5t82.5 284.5q0 178 -81.5 283.5t-221.5 105.5q-139 0 -221 -103.5t-82 -285.5zM1092 592h622q-2 137 -79 218t-208 81q-145 0 -232.5 -77.5t-102.5 -221.5z" />
<glyph unicode="&#xfb01;" horiz-adv-x="1148" d="M61 879v129h168v231q0 179 85.5 287.5t258.5 111.5h164v-139h-166q-160 0 -168 -242v-249h586v-1008h-176v879h-410v-879h-174v879h-168zM813 1190v211h176v-211h-176z" />
<glyph unicode="&#xfb02;" horiz-adv-x="1148" d="M61 879v129h168v231q0 179 85.5 287.5t258.5 111.5h416v-1638h-176v1499h-242q-160 0 -168 -242v-249h195v-129h-195v-879h-174v879h-168z" />
<glyph unicode="&#xfb03;" horiz-adv-x="1802" d="M61 879v129h168v231q0 179 85.5 287.5t258.5 111.5h164v-139h-166q-160 0 -168 -242v-249h480v231q0 179 85.5 287.5t258.5 111.5h164v-139h-166q-160 0 -168 -242v-249h585v-1008h-176v879h-409v-879h-174v879h-480v-879h-174v879h-168zM1466 1190v211h176v-211h-176z " />
<glyph unicode="&#xfb04;" horiz-adv-x="1802" d="M61 879v129h168v231q0 179 85.5 287.5t258.5 111.5h164v-139h-166q-160 0 -168 -242v-249h480v231q0 179 85.5 287.5t258.5 111.5h415v-1638h-176v1499h-241q-160 0 -168 -242v-249h194v-129h-194v-879h-174v879h-480v-879h-174v879h-168z" />
<glyph horiz-adv-x="2048" />
<glyph horiz-adv-x="2048" />
<glyph unicode="&#xd;" horiz-adv-x="2048" />
<glyph unicode=" "  horiz-adv-x="665" />
<glyph unicode="&#x09;" horiz-adv-x="665" />
<glyph unicode="&#xa0;" horiz-adv-x="665" />
<glyph unicode="!" horiz-adv-x="624" d="M215 0v250h195v-250h-195zM215 475v1002h195v-1002h-195z" />
<glyph unicode="&#x22;" horiz-adv-x="841" d="M160 844v499h162v-499h-162zM520 844v499h162v-499h-162z" />
<glyph unicode="#" horiz-adv-x="1413" d="M41 408v151h334l80 332h-305v151h342l102 412h149l-100 -412h279l100 412h152l-99 -412h297v-151h-334l-77 -332h301v-151h-338l-99 -408h-153l98 408h-278l-97 -408h-153l98 408h-299zM528 559h279l78 332h-277z" />
<glyph unicode="$" horiz-adv-x="1048" d="M76 90v176q186 -124 399 -127v451q-208 36 -303.5 119.5t-95.5 236.5q0 159 102.5 252.5t296.5 108.5v233h96v-231q149 0 332 -62v-174q-151 80 -332 92v-422q215 -34 316.5 -122.5t101.5 -245.5q0 -167 -108 -264.5t-310 -110.5v-297h-96v297q-203 0 -399 90zM250 961 q0 -85 52.5 -131t172.5 -70v405q-108 -11 -166.5 -63.5t-58.5 -140.5zM571 141q118 15 181 70t63 145q0 86 -58 137t-186 76v-428z" />
<glyph unicode="%" horiz-adv-x="1773" d="M70 1100q0 180 88 290.5t237 110.5q148 0 239 -107t91 -294q0 -183 -88 -292.5t-242 -109.5q-151 0 -238 107.5t-87 294.5zM221 1100q0 -127 44.5 -202t129.5 -75q83 0 130.5 72t47.5 205q0 129 -47 203.5t-131 74.5q-82 0 -128 -74.5t-46 -203.5zM367 -27l886 1528h152 l-887 -1528h-151zM1049 371q0 184 87 292t240 111q150 0 239 -109t89 -294q0 -181 -88.5 -289.5t-239.5 -108.5q-153 0 -240 107t-87 291zM1200 371q0 -127 45.5 -201t130.5 -74q80 0 128 74.5t48 200.5q0 127 -48 201.5t-128 74.5t-128 -72t-48 -204z" />
<glyph unicode="&#x26;" horiz-adv-x="1423" d="M76 455q0 249 254 448q-94 125 -94 246q0 159 106.5 255.5t280.5 96.5q155 0 315 -69v-181q-170 95 -297 95q-99 0 -161 -54t-62 -141q0 -57 27 -106t114 -140l483 -516q114 185 125 402h176q-25 -272 -198 -510l264 -281h-240l-135 143q-100 -88 -206.5 -129t-233.5 -41 q-227 0 -372.5 134.5t-145.5 347.5zM258 465q0 -141 100 -238.5t254 -97.5q179 0 318 127l-504 537q-168 -155 -168 -328z" />
<glyph unicode="'" horiz-adv-x="481" d="M160 1008v497h162v-497h-162z" />
<glyph unicode="(" horiz-adv-x="579" d="M98 635q0 435 285 903h152q-252 -466 -252 -903q0 -455 252 -899h-152q-285 452 -285 899z" />
<glyph unicode=")" horiz-adv-x="583" d="M45 -264q250 441 250 899q0 454 -250 903h152q284 -467 284 -903q0 -453 -284 -899h-152z" />
<glyph unicode="*" horiz-adv-x="999" d="M72 848l340 192l-340 193l53 98l319 -201v371h109v-371l319 201l56 -98l-342 -193l342 -192l-56 -98l-319 202v-374h-109v374l-319 -202z" />
<glyph unicode="+" horiz-adv-x="1277" d="M31 549v168h528v553h160v-553h528v-168h-528v-549h-160v549h-528z" />
<glyph unicode="," horiz-adv-x="514" d="M111 -213l77 287v153h201v-153l-156 -287h-122z" />
<glyph unicode="-" horiz-adv-x="831" d="M160 430v148h512v-148h-512z" />
<glyph unicode="." horiz-adv-x="520" d="M160 0v227h200v-227h-200z" />
<glyph unicode="/" horiz-adv-x="720" d="M31 -186l493 1663h162l-493 -1663h-162z" />
<glyph unicode="0" horiz-adv-x="1304" d="M160 735q0 376 124 571t365 195q236 0 364 -196t128 -570q0 -372 -127.5 -567t-364.5 -195q-239 0 -364 193.5t-125 568.5zM352 735q0 -608 297 -608t297 608t-297 608t-297 -608z" />
<glyph unicode="1" horiz-adv-x="821" d="M119 1157v182l221 138h192v-1311h201v-166h-604v166h213v1128z" />
<glyph unicode="2" horiz-adv-x="1165" d="M127 0v166q100 111 215 232.5t179.5 188.5t131.5 143t100 125.5t53.5 104.5t20.5 109q0 116 -78.5 191t-207.5 75q-111 -3 -235 -116t-169 -236v250q30 101 158.5 183.5t241.5 84.5q219 0 351 -112.5t132 -307.5q0 -95 -32.5 -175t-119.5 -191q-7 -8 -510 -549h670v-166 h-901z" />
<glyph unicode="3" horiz-adv-x="1177" d="M92 41v195q169 -97 373 -97q180 0 274.5 73.5t94.5 215.5q0 130 -87.5 204.5t-244.5 74.5h-146v163h154q138 0 214.5 58.5t76.5 169.5q0 112 -76 174.5t-223 62.5q-195 0 -369 -118v176q237 108 387 108q217 0 344 -102t127 -281q0 -121 -66.5 -205.5t-191.5 -117.5 q135 -31 214 -128.5t79 -238.5q0 -218 -144.5 -336.5t-410.5 -118.5q-162 0 -379 68z" />
<glyph unicode="4" horiz-adv-x="1208" d="M86 346v195l590 936h242v-965h202v-166h-202v-346h-191v346h-641zM242 512h485v788z" />
<glyph unicode="5" horiz-adv-x="1171" d="M111 33v200q172 -94 368 -94q164 0 260.5 88.5t96.5 245.5q0 153 -97 243.5t-260 90.5q-144 0 -309 -74l100 744h754l-39 -168h-577l-48 -363q81 27 152 29q234 0 375 -134t141 -368q0 -237 -143 -368.5t-402 -131.5q-186 0 -372 60z" />
<glyph unicode="6" horiz-adv-x="1267" d="M154 735q0 349 160 557.5t427 208.5q144 0 299 -57v-182q-146 73 -290 73q-379 0 -406 -538q116 175 328 178q211 0 336 -135.5t125 -366.5q0 -227 -129.5 -363.5t-344.5 -136.5q-245 0 -375 194t-130 568zM379 473q0 -159 73.5 -252.5t206.5 -93.5q129 0 205 94t76 252 t-76 251t-205 93q-127 0 -203.5 -92t-76.5 -252z" />
<glyph unicode="7" horiz-adv-x="1069" d="M68 1309v168h911v-86l-514 -1391h-201l484 1309h-680z" />
<glyph unicode="8" horiz-adv-x="1275" d="M150 414q0 139 77 238t215 132q-120 30 -190 119t-70 215q0 178 121 280.5t334 102.5q206 0 329.5 -101t123.5 -282q0 -122 -68.5 -211.5t-192.5 -122.5q136 -34 213 -129.5t80 -240.5q0 -213 -125.5 -327t-359.5 -114q-236 0 -361.5 111.5t-125.5 329.5zM342 414 q0 -133 79 -210t216 -77q133 0 213 76.5t80 210.5q0 132 -77 209t-216 77q-137 0 -216 -75t-79 -211zM373 1100q0 -115 70 -178.5t194 -63.5q120 0 191 64t71 178t-69 178.5t-193 64.5q-123 0 -193.5 -63.5t-70.5 -179.5z" />
<glyph unicode="9" horiz-adv-x="1267" d="M131 999q0 226 129 364t344 138q244 0 375 -195.5t131 -570.5q0 -229 -70.5 -401t-204 -266.5t-313.5 -94.5q-139 0 -299 56v182q138 -72 293 -72q190 0 288.5 131t115.5 406q-55 -84 -139 -128.5t-187 -47.5q-214 0 -338.5 133t-124.5 366zM324 999q0 -160 76.5 -252 t203.5 -92q129 0 205 92t76 252q0 155 -74.5 249.5t-206.5 94.5q-126 0 -203 -92t-77 -252z" />
<glyph unicode=":" horiz-adv-x="520" d="M160 0v227h200v-227h-200zM160 723v229h200v-229h-200z" />
<glyph unicode=";" horiz-adv-x="524" d="M106 -213l78 287v153h201v-153l-156 -287h-123zM184 723v229h201v-229h-201z" />
<glyph unicode="&#x3c;" horiz-adv-x="1359" d="M49 502v149l1219 418v-164l-981 -330l981 -327v-164z" />
<glyph unicode="=" horiz-adv-x="1538" d="M160 315v154h1218v-154h-1218zM160 684v152h1218v-152h-1218z" />
<glyph unicode="&#x3e;" horiz-adv-x="1359" d="M92 84v164l979 327l-979 330v164l1219 -418v-149z" />
<glyph unicode="?" horiz-adv-x="954" d="M86 1204v187q166 110 371 110q175 0 281 -95.5t106 -258.5q0 -73 -34.5 -138t-119.5 -151l-84 -86q-65 -65 -82.5 -97.5t-17.5 -103.5q0 -6 1 -24t1 -29l-2 -123h-182v152q0 104 26 164.5t113 150.5l86 88q52 48 75.5 93.5t26.5 99.5q0 87 -62.5 141.5t-164.5 54.5 q-150 0 -338 -135zM317 0v205h195v-205h-195z" />
<glyph unicode="@" horiz-adv-x="1832" d="M80 535q0 153 45 292t126.5 246.5t189.5 187.5t239 122t270 42q129 0 250.5 -38t222 -109t176.5 -166t118 -215t42 -250q0 -259 -151 -409t-416 -158v153q-108 -149 -301 -149q-161 0 -265 123t-104 321q0 194 102.5 320.5t266.5 126.5q194 0 301 -150v129h135v-727 q138 22 216 131t81 287q0 145 -57 267t-152 201t-214.5 123.5t-248.5 47.5q-159 0 -298 -60t-235 -162t-151 -239t-55 -288q0 -161 58 -300.5t156 -236t230.5 -152t278.5 -55.5q124 0 243.5 43.5t215.5 124.5l86 -111q-116 -94 -256.5 -144.5t-288.5 -53.5q-152 0 -288 47 t-238.5 130.5t-177.5 194.5t-113.5 242.5t-38.5 270.5zM674 528q0 -139 66.5 -220t187.5 -81q114 0 182 80.5t68 220.5q0 138 -68 219.5t-184 81.5q-113 0 -181 -78t-71 -223z" />
<glyph unicode="A" horiz-adv-x="1343" d="M23 0l538 1477h217l541 -1477h-199l-129 377h-641l-125 -377h-202zM412 545h518l-260 733z" />
<glyph unicode="B" horiz-adv-x="1263" d="M160 0v1477h491q215 0 336 -95.5t121 -269.5q0 -274 -240 -317q140 -31 219.5 -131.5t79.5 -251.5q0 -198 -129 -305t-368 -107h-510zM352 162h310q153 0 228 65.5t75 206.5q0 271 -303 271h-310v-543zM352 866h285q139 0 208.5 54.5t69.5 169.5q0 110 -67.5 165 t-210.5 58h-285v-447z" />
<glyph unicode="C" horiz-adv-x="1316" d="M96 735q0 355 185.5 560.5t506.5 205.5q255 0 453 -139v-209q-190 184 -440 184q-240 0 -371 -154t-131 -448q0 -289 127.5 -444.5t374.5 -155.5q244 0 440 187v-209q-198 -140 -453 -140q-320 0 -506 203.5t-186 558.5z" />
<glyph unicode="D" horiz-adv-x="1454" d="M160 0v1477h395q411 0 605 -178t194 -562q0 -380 -193 -558.5t-606 -178.5h-395zM352 162h234q293 0 429 138.5t136 436.5q0 297 -136 436.5t-429 139.5h-234v-1151z" />
<glyph unicode="E" horiz-adv-x="1144" d="M160 0v1477h897v-168h-705v-439h676v-168h-676v-536h723v-166h-915z" />
<glyph unicode="F" horiz-adv-x="1019" d="M160 0v1477h815v-168h-623v-439h563v-165h-563v-705h-192z" />
<glyph unicode="G" horiz-adv-x="1445" d="M96 735q0 362 188 564t521 202q287 0 493 -139v-211q-210 186 -479 186q-520 0 -520 -602q0 -600 520 -600q204 0 326 74v399h-314v162h504v-633q-217 -164 -530 -164q-334 0 -521.5 200.5t-187.5 561.5z" />
<glyph unicode="H" horiz-adv-x="1402" d="M160 0v1477h192v-607h699v607h192v-1477h-192v702h-699v-702h-192z" />
<glyph unicode="I" horiz-adv-x="512" d="M160 0v1477h192v-1477h-192z" />
<glyph unicode="J" horiz-adv-x="512" d="M-129 -236h59q127 0 178.5 74t51.5 262v1377h192v-1377q0 -261 -95.5 -383.5t-311.5 -122.5h-74v170z" />
<glyph unicode="K" horiz-adv-x="1292" d="M160 0v1477h192v-627l637 627h248l-705 -689l754 -788h-252l-682 709v-709h-192z" />
<glyph unicode="L" horiz-adv-x="1067" d="M160 0v1477h192v-1311h692v-166h-884z" />
<glyph unicode="M" horiz-adv-x="1617" d="M160 0v1477h286l363 -1008l362 1008h287v-1477h-186v1296l-367 -1013h-192l-365 1013v-1296h-188z" />
<glyph unicode="N" horiz-adv-x="1394" d="M160 0v1477h260l629 -1237v1237h186v-1477h-260l-627 1235v-1235h-188z" />
<glyph unicode="O" horiz-adv-x="1509" d="M96 735q0 349 179.5 557.5t478.5 208.5q296 0 475.5 -208.5t179.5 -557.5q0 -228 -79 -400.5t-228 -267t-348 -94.5q-301 0 -479.5 207.5t-178.5 554.5zM299 735q0 -277 122 -440.5t333 -163.5q207 0 329.5 162t122.5 442q0 278 -121 441t-331 163q-208 0 -331.5 -161 t-123.5 -443z" />
<glyph unicode="P" horiz-adv-x="1148" d="M160 0v1477h434q234 0 358.5 -112.5t124.5 -332.5q0 -216 -123 -328t-360 -112h-242v-592h-192zM352 756h242q131 0 205.5 71t74.5 205q0 133 -72.5 205.5t-207.5 75.5h-242v-557z" />
<glyph unicode="Q" horiz-adv-x="1509" d="M96 735q0 349 179.5 557.5t478.5 208.5q296 0 475.5 -208.5t179.5 -557.5q0 -257 -98.5 -440t-288.5 -270l254 -285h-232l-210 237q-9 -1 -26 -2t-24 -2q-317 0 -502.5 200.5t-185.5 561.5zM299 735q0 -277 122 -440.5t333 -163.5q207 0 329.5 162t122.5 442 q0 278 -121 441t-331 163q-208 0 -331.5 -161t-123.5 -443z" />
<glyph unicode="R" horiz-adv-x="1243" d="M160 0v1477h434q483 0 483 -426q0 -139 -62 -231.5t-181 -129.5q117 -39 237 -289l121 -401h-207l-106 377q-70 146 -135.5 196t-182.5 50h-209v-623h-192zM352 788h242q138 0 209 67t71 196q0 256 -280 262h-242v-525z" />
<glyph unicode="S" horiz-adv-x="1169" d="M90 1081q0 195 132.5 307.5t365.5 112.5q206 0 416 -74v-194q-226 106 -394 106q-327 0 -327 -249q0 -96 57 -143t213 -79l117 -24q214 -45 317 -150.5t103 -287.5q0 -212 -138 -322.5t-405 -110.5q-209 0 -451 88v209q237 -139 451 -139q161 0 251.5 67t90.5 193 q0 107 -63.5 169.5t-211.5 92.5l-116 25q-216 43 -312 137.5t-96 265.5z" />
<glyph unicode="T" horiz-adv-x="1265" d="M33 1309v168h1200v-168h-504v-1309h-192v1309h-504z" />
<glyph unicode="U" horiz-adv-x="1378" d="M147 553v924h193v-899q0 -236 81 -341.5t269 -105.5q185 0 267.5 105.5t82.5 341.5v899h193v-924q0 -288 -137.5 -434t-405.5 -146q-267 0 -405 145t-138 435z" />
<glyph unicode="V" horiz-adv-x="1366" d="M35 1477h201l448 -1246l449 1246h200l-540 -1477h-218z" />
<glyph unicode="W" horiz-adv-x="1906" d="M55 1477h195l297 -1250l299 1250h215l299 -1250l297 1250h194l-356 -1477h-242l-299 1280l-301 -1280h-241z" />
<glyph unicode="X" horiz-adv-x="1263" d="M18 0l506 788l-442 689h207l352 -549l354 549h207l-457 -709l488 -768h-207l-399 627l-402 -627h-207z" />
<glyph unicode="Y" horiz-adv-x="1222" d="M12 1477h207l393 -609l392 609h206l-503 -775v-702h-193v702z" />
<glyph unicode="Z" horiz-adv-x="1286" d="M66 0v150l897 1159h-877v168h1116v-154l-897 -1157h918v-166h-1157z" />
<glyph unicode="[" horiz-adv-x="618" d="M160 -264v1804h403v-141h-227v-1522h227v-141h-403z" />
<glyph unicode="\" horiz-adv-x="722" d="M31 1343h159l496 -1513h-162z" />
<glyph unicode="]" horiz-adv-x="618" d="M55 -123h228v1522h-228v141h404v-1804h-404v141z" />
<glyph unicode="^" horiz-adv-x="1314" d="M47 842l516 501h187l516 -501h-191l-418 356l-419 -356h-191z" />
<glyph unicode="_" horiz-adv-x="1011" d="M0 -305h1012v-129h-1012v129z" />
<glyph unicode="`" horiz-adv-x="616" d="M82 1475h184l269 -338h-146z" />
<glyph unicode="a" horiz-adv-x="1138" d="M94 293q0 170 121 256t358 86h246v16q0 111 -80 175.5t-223 64.5q-180 0 -344 -82v152q192 71 363 71q231 0 344.5 -114t113.5 -345v-573h-174v152q-59 -91 -147.5 -134t-220.5 -43q-161 0 -257.5 84t-99.5 234zM270 303q0 -90 60.5 -141t167.5 -51q143 0 232 98t89 260 v37h-174q-211 0 -293 -45.5t-82 -157.5z" />
<glyph unicode="b" horiz-adv-x="1226" d="M160 0v1638h176v-784q56 90 138.5 134t201.5 44q194 0 315 -147t121 -383q0 -234 -120 -380.5t-316 -146.5q-117 0 -199 41.5t-141 133.5v-150h-176zM336 502q0 -180 77.5 -285.5t219.5 -105.5q139 0 219 104.5t80 286.5q0 181 -80 286t-219 105q-135 0 -216 -103.5 t-81 -287.5z" />
<glyph unicode="c" horiz-adv-x="1036" d="M109 502q0 246 142.5 388t391.5 142q172 0 307 -63v-156q-138 72 -299 78q-168 0 -263 -101t-95 -288q0 -181 91.5 -285t266.5 -104q157 0 299 77v-153q-145 -62 -319 -62q-237 0 -379.5 142.5t-142.5 384.5z" />
<glyph unicode="d" horiz-adv-x="1220" d="M111 502q0 236 120.5 383t315.5 147q233 0 340 -178v784h174v-1638h-174v150q-105 -175 -340 -175q-193 0 -314.5 145.5t-121.5 381.5zM291 502q0 -182 78 -286.5t219 -104.5q139 0 219 104.5t80 286.5q0 181 -80 286t-219 105q-138 0 -217.5 -103.5t-79.5 -287.5z" />
<glyph unicode="e" horiz-adv-x="1193" d="M106 494q0 246 141.5 392t379.5 146q213 0 339 -130.5t126 -356.5v-82h-803q12 -168 107.5 -259t271.5 -91q195 0 385 94v-156q-183 -76 -394 -76q-254 0 -403.5 139t-149.5 380zM295 592h623q0 133 -79 216t-210 83q-146 0 -233.5 -77.5t-100.5 -221.5z" />
<glyph unicode="f" horiz-adv-x="653" d="M61 879v129h168v231q0 179 85.5 287.5t258.5 111.5h164v-139h-166q-160 0 -168 -242v-249h195v-129h-195v-879h-174v879h-168z" />
<glyph unicode="g" horiz-adv-x="1218" d="M109 516q0 230 119.5 373t316.5 143q230 0 340 -178v154h174v-967q0 -255 -119.5 -378.5t-370.5 -123.5q-181 0 -333 53v162q153 -78 307 -78q342 0 342 334v166q-104 -176 -340 -176q-195 0 -315.5 141.5t-120.5 374.5zM289 516q0 -180 76.5 -279.5t220.5 -99.5 q141 0 220 99.5t79 279.5q0 177 -78 277t-221 100q-139 0 -218 -98.5t-79 -278.5z" />
<glyph unicode="h" d="M160 0v1638h176v-788q126 182 344 182q181 0 277 -107.5t96 -316.5v-608h-176v602q0 282 -236 285q-142 0 -222 -84t-83 -234v-569h-176z" />
<glyph unicode="i" horiz-adv-x="495" d="M160 0v1008h176v-1008h-176zM160 1190v211h176v-211h-176z" />
<glyph unicode="j" horiz-adv-x="495" d="M-55 -319h47q67 0 101 16.5t50.5 64.5t16.5 142v1104h176v-1104q0 -189 -77.5 -277t-250.5 -88h-63v142zM160 1190v211h176v-211h-176z" />
<glyph unicode="k" horiz-adv-x="1132" d="M160 0v1638h176v-1067l522 437h223l-565 -473l588 -535h-227l-541 492v-492h-176z" />
<glyph unicode="l" horiz-adv-x="495" d="M160 0v1638h176v-1638h-176z" />
<glyph unicode="m" horiz-adv-x="1861" d="M160 0v1008h176v-158q62 94 143.5 138t198.5 44q233 0 317 -219q127 219 371 219q167 0 257.5 -110.5t90.5 -313.5v-608h-176v602q0 285 -219 285q-136 0 -214 -84t-81 -234v-569h-174v602q0 144 -54 214.5t-169 70.5q-133 0 -210.5 -86t-80.5 -232v-569h-176z" />
<glyph unicode="n" d="M160 0v1008h176v-158q126 182 344 182q181 0 277 -107.5t96 -316.5v-608h-176v602q0 282 -236 285q-142 0 -222 -84t-83 -234v-569h-176z" />
<glyph unicode="o" horiz-adv-x="1202" d="M111 502q0 247 129.5 388.5t357.5 141.5t358.5 -141.5t130.5 -388.5q0 -245 -129.5 -386t-359.5 -141q-227 0 -357 139.5t-130 387.5zM295 502q0 -180 79.5 -284.5t223.5 -104.5q138 0 220.5 104.5t82.5 284.5q0 178 -81.5 283.5t-221.5 105.5q-139 0 -221 -103.5 t-82 -285.5z" />
<glyph unicode="p" horiz-adv-x="1226" d="M160 -461v1469h176v-154q56 90 138.5 134t201.5 44q194 0 315 -147t121 -383q0 -234 -120 -380.5t-316 -146.5q-117 0 -199 41.5t-141 133.5v-611h-176zM336 502q0 -180 77.5 -285.5t219.5 -105.5q139 0 219 104.5t80 286.5q0 181 -80 286t-219 105q-135 0 -216 -103.5 t-81 -287.5z" />
<glyph unicode="q" horiz-adv-x="1220" d="M111 502q0 236 120.5 383t315.5 147q233 0 340 -178v154h174v-1469h-174v611q-105 -175 -340 -175q-193 0 -314.5 145.5t-121.5 381.5zM291 502q0 -182 78 -286.5t219 -104.5q139 0 219 104.5t80 286.5q0 181 -80 286t-219 105q-138 0 -217.5 -103.5t-79.5 -287.5z" />
<glyph unicode="r" horiz-adv-x="827" d="M160 0v1008h176v-158q109 182 358 182q37 0 88 -10v-170q-61 33 -139 33q-148 0 -226 -91.5t-81 -263.5v-530h-176z" />
<glyph unicode="s" horiz-adv-x="1009" d="M104 37v170q190 -90 377 -96q118 0 186.5 39t71.5 114q0 47 -18 74t-73 50.5t-169 49.5l-59 13q-164 36 -234 99t-73 185q0 140 106 218.5t301 78.5q194 0 340 -55v-156q-153 66 -317 72q-262 0 -262 -152q0 -59 46.5 -91t186.5 -60l61 -15q185 -39 264 -106t79 -193 q0 -139 -118.5 -220t-322.5 -81q-170 0 -373 62z" />
<glyph unicode="t" horiz-adv-x="788" d="M72 879v129h127v241l176 62v-303h297v-129h-297v-547q0 -123 33 -159t147 -36h180v-137h-180q-102 0 -167.5 15t-109 53.5t-61.5 101.5t-18 162v547h-127z" />
<glyph unicode="u" d="M150 397v611h174v-605q0 -286 235 -286q139 0 222 85t83 234v572h176v-1008h-176v154q-123 -179 -342 -179q-184 0 -278 106.5t-94 315.5z" />
<glyph unicode="v" horiz-adv-x="1132" d="M49 1008h184l334 -846l332 846h186l-399 -1008h-237z" />
<glyph unicode="w" horiz-adv-x="1564" d="M70 1008h174l219 -787l217 787h207l217 -787l219 787h174l-278 -1008h-207l-230 825l-229 -825h-205z" />
<glyph unicode="x" horiz-adv-x="1116" d="M39 0l414 526l-377 482h205l282 -361l283 361h205l-385 -492l405 -516h-207l-309 395l-309 -395h-207z" />
<glyph unicode="y" horiz-adv-x="1122" d="M43 1008h186l332 -789l332 789h186l-487 -1143q-39 -93 -73 -149.5t-74 -88.5t-82 -42.5t-105 -10.5h-92l-47 139h102q38 0 61 5.5t47.5 25t45.5 56.5t47 100l51 116z" />
<glyph unicode="z" horiz-adv-x="1024" d="M80 0v150l657 724h-633v134h830v-152l-658 -725h658v-131h-854z" />
<glyph unicode="{" horiz-adv-x="813" d="M18 532v144h60q134 0 185.5 55.5t51.5 204.5v240q0 113 16 179.5t62 110t120.5 59t199.5 15.5h57v-141h-63q-70 0 -108.5 -8t-64.5 -34t-34.5 -68.5t-10.5 -117.5v-245q0 -157 -42 -227t-148 -95q107 -28 148.5 -97.5t41.5 -223.5v-246q0 -137 41 -180t177 -43h63v-142 h-57q-123 0 -196 14.5t-120.5 56.5t-64.5 109.5t-17 180.5v237q0 145 -50.5 203.5t-186.5 58.5h-60z" />
<glyph unicode="|" horiz-adv-x="481" d="M160 -426v1905h162v-1905h-162z" />
<glyph unicode="}" horiz-adv-x="811" d="M41 -186h68q133 0 173 41.5t40 181.5v246q0 153 42 223t148 98q-105 25 -147.5 95t-42.5 227v245q0 72 -8 113.5t-32 69t-64 36.5t-109 9h-68v141h61q123 0 196.5 -15.5t120 -58t63 -110t16.5 -180.5v-240q0 -149 50.5 -204.5t186.5 -55.5h58v-144h-58q-135 0 -186 -55 t-51 -207v-237q0 -112 -16.5 -179t-63 -109.5t-120 -57.5t-196.5 -15h-61v142z" />
<glyph unicode="~" horiz-adv-x="1474" d="M127 420v160q102 70 185 101.5t177 31.5q74 0 145.5 -19t120.5 -42.5t116.5 -42.5t134.5 -19q83 0 163 34t177 111v-162q-99 -70 -182 -99.5t-181 -31.5q-77 0 -148 19t-117 41.5t-113 41.5t-136 19q-160 0 -342 -143z" />
<glyph unicode="&#xa1;" horiz-adv-x="620" d="M215 0v1006h191v-1006h-191zM215 1225v252h191v-252h-191z" />
<glyph unicode="&#xa2;" horiz-adv-x="987" d="M74 502q0 232 123.5 370t355.5 158v258h98v-258q150 -7 264 -61v-156q-139 72 -264 78v-778q128 6 264 77v-153q-121 -53 -264 -62v-256h-98v261q-227 15 -353 152t-126 370zM258 502q0 -164 76 -266t219 -119v770q-138 -15 -216.5 -117t-78.5 -268z" />
<glyph unicode="&#xa3;" horiz-adv-x="1058" d="M55 0v166h224v461h-189v143h189v234q0 258 100 377.5t323 119.5q132 0 277 -57v-180q-137 79 -258 79q-95 0 -147.5 -30t-78.5 -109t-26 -223v-211h373v-143h-373v-461h530v-166h-944z" />
<glyph unicode="&#xa4;" horiz-adv-x="1220" d="M78 193l196 204q-69 125 -69 236q0 127 71 233l-196 205l110 113l197 -205q99 74 223 74q120 0 226 -72l196 207l109 -115l-197 -203q70 -118 70 -237q0 -121 -74 -234l199 -204l-109 -113l-196 205q-107 -76 -224 -76q-120 0 -227 72l-197 -203zM352 635 q0 -113 74.5 -190.5t183.5 -77.5q106 0 180 78t74 190q0 107 -73.5 184.5t-180.5 77.5q-103 0 -180.5 -76t-77.5 -186z" />
<glyph unicode="&#xa5;" horiz-adv-x="1183" d="M51 1477h182l359 -695l358 695h183l-304 -582h252v-121h-315l-80 -153v-52h395v-123h-393v-446h-190v446h-396v123h396v52l-80 153h-316v121h252z" />
<glyph unicode="&#xa6;" horiz-adv-x="479" d="M160 -313v680h159v-680h-159zM160 606v682h159v-682h-159z" />
<glyph unicode="&#xa7;" horiz-adv-x="946" d="M74 707v6q0 186 174 280q-107 82 -113 224q0 126 95 205t253 79q157 0 291 -55v-162q-162 73 -270 76q-88 0 -141.5 -38t-53.5 -112q0 -85 197 -202q207 -135 261 -182q77 -65 93 -136q8 -32 8 -76q0 -174 -174 -280q58 -52 84 -102.5t29 -118.5q0 -138 -97.5 -220.5 t-260.5 -82.5q-142 0 -299 55v160q149 -67 276 -74q97 0 151 39.5t54 113.5q0 51 -51 104.5t-158 119.5l-25 16q-198 121 -260.5 190.5t-62.5 172.5zM227 745q0 -54 21.5 -92t101.5 -96.5t246 -150.5q61 46 90 88.5t29 91.5q0 51 -24 91t-105 100.5t-240 148.5 q-60 -48 -88 -90t-31 -91z" />
<glyph unicode="&#xa8;" horiz-adv-x="884" d="M160 1214v183h192v-183h-192zM532 1214v183h193v-183h-193z" />
<glyph unicode="&#xa9;" horiz-adv-x="1585" d="M86 731q0 125 38 240.5t105 204.5t155 155.5t193 101.5t214 35q149 0 281.5 -61t224 -162t145 -235.5t53.5 -278.5q0 -149 -56.5 -285t-151 -233.5t-224.5 -155t-272 -57.5q-194 0 -357 100.5t-255.5 268.5t-92.5 362zM182 731q0 -130 50 -248t133.5 -201.5t195 -132.5 t230.5 -49q170 0 310.5 87t219 231.5t78.5 312.5q0 116 -34 217.5t-93 175.5t-136 128.5t-165.5 83t-179.5 30.5q-163 0 -303.5 -86t-223 -232.5t-82.5 -316.5zM371 731q0 206 119.5 326.5t324.5 120.5q133 0 260 -56v-127q-99 56 -250 66q-140 0 -219.5 -85.5t-79.5 -244.5 q0 -158 81 -244t229 -86q122 0 239 64v-123q-110 -52 -260 -59q-202 0 -323 119.5t-121 328.5z" />
<glyph unicode="&#xaa;" horiz-adv-x="923" d="M104 934q0 270 359 270h174v4q0 181 -221 181q-121 0 -254 -68v127q138 53 272 53q173 0 258.5 -86t85.5 -262v-444h-141v110q-40 -62 -109 -96.5t-157 -34.5q-121 0 -192.5 65.5t-74.5 180.5zM127 463v123h653v-123h-653zM244 948q0 -63 44.5 -102t127.5 -39 q99 0 160 72t61 184v29h-121q-149 0 -210.5 -33t-61.5 -111z" />
<glyph unicode="&#xab;" horiz-adv-x="1046" d="M66 502v73l444 377v-172l-285 -241l285 -242v-170zM477 502v73l447 377v-172l-287 -241l287 -242v-170z" />
<glyph unicode="&#xac;" horiz-adv-x="1441" d="M63 623v151h1219v-516h-160v365h-1059z" />
<glyph unicode="&#xad;" horiz-adv-x="831" d="M160 430v148h512v-148h-512z" />
<glyph unicode="&#xae;" horiz-adv-x="1585" d="M88 731q0 156 58 295t155 235t225 151.5t265 55.5q148 0 280.5 -61t224.5 -162t145.5 -235.5t53.5 -278.5q0 -149 -56.5 -285t-151 -233.5t-224.5 -155t-272 -57.5q-194 0 -356.5 100.5t-254.5 268t-92 362.5zM180 731q0 -130 50 -248t133.5 -201.5t195.5 -132.5t232 -49 q170 0 310 87t218 231.5t78 312.5q0 144 -52 265t-138 199.5t-193.5 123t-222.5 47.5q-164 0 -305 -86t-223.5 -232.5t-82.5 -316.5zM500 332v827h270q166 0 250 -57t84 -178q0 -84 -49 -140t-142 -75q22 -4 49.5 -39t79.5 -117l132 -221h-164l-123 209q-55 92 -87 117 t-89 28h-64v-354h-147zM647 784h117q102 0 145 30t43 106q0 77 -41.5 105.5t-146.5 33.5h-117v-275z" />
<glyph unicode="&#xaf;" horiz-adv-x="888" d="M160 1239v133h569v-133h-569z" />
<glyph unicode="&#xb0;" horiz-adv-x="833" d="M111 1186q0 130 87 222.5t214 92.5q74 0 133 -28.5t93.5 -75t53.5 -100.5t21 -111q0 -127 -87.5 -220.5t-215.5 -93.5q-127 0 -213 90t-86 224zM231 1186q0 -76 53.5 -131.5t127.5 -55.5t127 53t53 134q0 73 -52 131.5t-128 58.5q-73 0 -127 -55t-54 -135z" />
<glyph unicode="&#xb1;" horiz-adv-x="1363" d="M74 0v166h1216v-166h-1216zM74 717v170h528v383h160v-383h528v-170h-528v-383h-160v383h-528z" />
<glyph unicode="&#xb2;" horiz-adv-x="768" d="M94 659v111q238 226 329 325.5t91 153.5q0 66 -50 107t-130 41q-48 0 -111.5 -35t-122.5 -96v123q60 52 128 82t126 30q137 0 220 -65.5t83 -169.5q0 -80 -87 -182.5t-310 -311.5h404v-113h-570z" />
<glyph unicode="&#xb3;" horiz-adv-x="782" d="M76 686v119q82 -46 225 -53q102 0 159.5 38t57.5 111q0 148 -207 148h-82v106h88q88 0 135.5 30.5t47.5 90.5q0 59 -47.5 90t-137.5 31q-44 0 -104 -23t-109 -69v112q134 84 244 84q133 0 215 -58t82 -155q0 -68 -42.5 -114.5t-121.5 -65.5q86 -19 135.5 -73.5 t49.5 -133.5q0 -123 -91 -189.5t-258 -66.5q-112 0 -239 41z" />
<glyph unicode="&#xb4;" horiz-adv-x="616" d="M80 1135l266 340h191l-310 -340h-147z" />
<glyph unicode="&#xb5;" horiz-adv-x="1239" d="M160 -383v1391h176v-627q0 -264 258 -264q283 0 283 303v588h176v-777q0 -55 16 -79.5t51 -24.5q17 0 66 20v-133q-66 -39 -142 -39q-131 0 -157 140q-98 -140 -279 -140q-191 0 -272 138v-496h-176z" />
<glyph unicode="&#xb6;" horiz-adv-x="1095" d="M57 1059q0 184 125 301t328 117h426v-1670h-135v1549h-180v-1549h-136v834q-202 15 -315 124t-113 294z" />
<glyph unicode="&#xb7;" horiz-adv-x="520" d="M160 524v230h200v-230h-200z" />
<glyph unicode="&#xb8;" horiz-adv-x="620" d="M96 -215q47 -23 148 -29q114 0 114 84q0 47 -84 160h113q102 -111 102 -193q0 -78 -57.5 -119.5t-167.5 -41.5q-87 0 -168 22v117z" />
<glyph unicode="&#xb9;" horiz-adv-x="591" d="M96 1284v115l160 80h129v-717h125v-111h-401v111h141v604z" />
<glyph unicode="&#xba;" horiz-adv-x="962" d="M113 1094q0 187 96.5 297t269.5 110q168 0 267.5 -107.5t99.5 -299.5q0 -188 -98.5 -297t-268.5 -109q-167 0 -266.5 109t-99.5 297zM152 463v123h655v-123h-655zM260 1094q0 -129 59.5 -209t159.5 -80t158.5 80.5t58.5 208.5q0 135 -57.5 215t-159.5 80 q-99 0 -159 -79.5t-60 -215.5z" />
<glyph unicode="&#xbb;" horiz-adv-x="1046" d="M123 127v170l287 242l-287 241v172l446 -377v-73zM537 127v170l284 242l-284 241v172l444 -377v-73z" />
<glyph unicode="&#xbc;" horiz-adv-x="1693" d="M59 1284v115l160 80h129v-717h125v-111h-401v111h141v604zM256 -27l885 1528h151l-884 -1528h-152zM997 182v121l371 522h158v-536h129v-107h-129v-182h-135v182h-394zM1096 289h295v418z" />
<glyph unicode="&#xbd;" horiz-adv-x="1654" d="M59 1284v115l160 80h129v-717h125v-111h-401v111h141v604zM256 -27l885 1528h151l-884 -1528h-152zM1026 0v106q197 168 307.5 300t110.5 182q0 66 -49 105.5t-129 39.5q-51 0 -115.5 -36t-118.5 -93v123q43 49 117 82t135 33q137 0 220 -66.5t83 -171.5 q0 -76 -101.5 -204.5t-293.5 -286.5h401v-113h-567z" />
<glyph unicode="&#xbe;" horiz-adv-x="1781" d="M47 686v119q82 -46 225 -53q102 0 159.5 38t57.5 111q0 148 -206 148h-82v106h88q88 0 135 30.5t47 90.5q0 59 -47 90t-137 31q-44 0 -104 -23t-109 -69v112q134 84 243 84q133 0 215 -58t82 -155q0 -69 -42.5 -115t-120.5 -65q86 -19 135 -73.5t49 -133.5 q0 -123 -90.5 -189.5t-257.5 -66.5q-113 0 -240 41zM344 -27l885 1528h151l-884 -1528h-152zM1085 182v121l371 522h158v-536h129v-107h-129v-182h-135v182h-394zM1184 289h295v418z" />
<glyph unicode="&#xbf;" horiz-adv-x="950" d="M109 319q0 78 33.5 143.5t119.5 151.5l84 86q66 67 83 105.5t17 124.5v26v121h183v-151q0 -103 -27 -165.5t-113 -150.5l-86 -86q-53 -55 -77.5 -97.5t-24.5 -92.5v-6q0 -87 62 -142t165 -55q149 0 336 135v-186q-163 -107 -368 -107q-173 0 -280 93.5t-107 252.5z M446 1274v203h183v-203h-183z" />
<glyph unicode="&#xc0;" horiz-adv-x="1343" d="M23 0l538 1477h217l541 -1477h-199l-129 377h-641l-125 -377h-202zM412 545h518l-260 733zM489 1862h177l186 -238h-145z" />
<glyph unicode="&#xc1;" horiz-adv-x="1343" d="M23 0l538 1477h217l541 -1477h-199l-129 377h-641l-125 -377h-202zM412 545h518l-260 733zM489 1624l187 238h176l-215 -238h-148z" />
<glyph unicode="&#xc2;" horiz-adv-x="1343" d="M23 0l538 1477h217l541 -1477h-199l-129 377h-641l-125 -377h-202zM381 1624l201 240h178l201 -240h-134l-157 160l-158 -160h-131zM412 545h518l-260 733z" />
<glyph unicode="&#xc3;" horiz-adv-x="1343" d="M23 0l538 1477h217l541 -1477h-199l-129 377h-641l-125 -377h-202zM356 1624q0 92 51 145.5t142 53.5q50 0 127 -39l53 -29q46 -22 70 -22q28 0 46.5 23t18.5 61v6h119q0 -87 -48.5 -143t-127.5 -56q-37 0 -64.5 7t-74.5 32l-54 31q-41 20 -65 20q-34 0 -54 -22.5 t-20 -61.5v-6h-119zM412 545h518l-260 733z" />
<glyph unicode="&#xc4;" horiz-adv-x="1343" d="M23 0l538 1477h217l541 -1477h-199l-129 377h-641l-125 -377h-202zM389 1624v182h193v-182h-193zM412 545h518l-260 733zM762 1624v182h192v-182h-192z" />
<glyph unicode="&#xc5;" horiz-adv-x="1343" d="M23 0l538 1477h12q-70 28 -112.5 88.5t-42.5 136.5q0 101 75.5 174.5t184.5 73.5q108 0 183.5 -71.5t78.5 -176.5q0 -76 -44.5 -137.5t-117.5 -89.5l541 -1475h-199l-129 377h-641l-125 -377h-202zM412 545h518l-260 733zM535 1702q0 -58 40.5 -96.5t102.5 -38.5 t103.5 38.5t41.5 96.5q0 57 -42.5 97t-102.5 40q-59 0 -101 -38.5t-42 -98.5z" />
<glyph unicode="&#xc7;" horiz-adv-x="1316" d="M96 735q0 355 185.5 560.5t506.5 205.5q255 0 453 -139v-209q-190 184 -440 184q-240 0 -371 -154t-131 -448q0 -289 127.5 -444.5t374.5 -155.5q244 0 440 187v-209q-179 -126 -399 -138q80 -92 80 -165q0 -78 -58 -120t-168 -42q-87 0 -168 22v117q47 -23 148 -29 q115 0 115 84q0 42 -66 133q-293 20 -461 221.5t-168 538.5z" />
<glyph unicode="&#xc8;" horiz-adv-x="1144" d="M160 0v1477h897v-168h-705v-439h676v-168h-676v-536h723v-166h-915zM436 1862h176l187 -238h-146z" />
<glyph unicode="&#xc9;" horiz-adv-x="1144" d="M160 0v1477h897v-168h-705v-439h676v-168h-676v-536h723v-166h-915zM436 1624l187 238h176l-215 -238h-148z" />
<glyph unicode="&#xca;" horiz-adv-x="1144" d="M160 0v1477h897v-168h-705v-439h676v-168h-676v-536h723v-166h-915zM328 1624l200 240h179l200 -240h-133l-158 160l-157 -160h-131z" />
<glyph unicode="&#xcb;" horiz-adv-x="1144" d="M160 0v1477h897v-168h-705v-439h676v-168h-676v-536h723v-166h-915zM336 1624v182h192v-182h-192zM709 1624v182h192v-182h-192z" />
<glyph unicode="&#xcc;" horiz-adv-x="512" d="M74 1862h176l188 -238h-147zM160 0v1477h192v-1477h-192z" />
<glyph unicode="&#xcd;" horiz-adv-x="512" d="M74 1624l188 238h176l-217 -238h-147zM160 0v1477h192v-1477h-192z" />
<glyph unicode="&#xce;" horiz-adv-x="512" d="M-33 1624l201 240h176l201 -240h-131l-160 160l-156 -160h-131zM160 0v1477h192v-1477h-192z" />
<glyph unicode="&#xcf;" horiz-adv-x="512" d="M-27 1624v182h193v-182h-193zM160 0v1477h192v-1477h-192zM346 1624v182h193v-182h-193z" />
<glyph unicode="&#xd0;" horiz-adv-x="1454" d="M-2 616v148h162v713h395q411 0 605 -178t194 -562q0 -380 -193 -558.5t-606 -178.5h-395v616h-162zM352 162h234q293 0 429 138.5t136 436.5q0 297 -136 436.5t-429 139.5h-234v-549h158v-148h-158v-454z" />
<glyph unicode="&#xd1;" horiz-adv-x="1394" d="M160 0v1477h260l629 -1237v1237h186v-1477h-260l-627 1235v-1235h-188zM385 1624q0 93 49.5 146t143.5 53q51 0 122 -39l58 -29q46 -22 65 -22q31 0 50.5 23t19.5 61v6h119q0 -87 -51 -143t-130 -56q-34 0 -62 7t-77 32l-53 31q-41 20 -66 20q-31 0 -50 -22.5t-19 -61.5 v-6h-119z" />
<glyph unicode="&#xd2;" horiz-adv-x="1509" d="M96 735q0 349 179.5 557.5t478.5 208.5q296 0 475.5 -208.5t179.5 -557.5q0 -228 -79 -400.5t-228 -267t-348 -94.5q-301 0 -479.5 207.5t-178.5 554.5zM299 735q0 -277 122 -440.5t333 -163.5q207 0 329.5 162t122.5 442q0 278 -121 441t-331 163q-208 0 -331.5 -161 t-123.5 -443zM571 1862h177l186 -238h-146z" />
<glyph unicode="&#xd3;" horiz-adv-x="1509" d="M96 735q0 349 179.5 557.5t478.5 208.5q296 0 475.5 -208.5t179.5 -557.5q0 -228 -79 -400.5t-228 -267t-348 -94.5q-301 0 -479.5 207.5t-178.5 554.5zM299 735q0 -277 122 -440.5t333 -163.5q207 0 329.5 162t122.5 442q0 278 -121 441t-331 163q-208 0 -331.5 -161 t-123.5 -443zM571 1624l187 238h176l-215 -238h-148z" />
<glyph unicode="&#xd4;" horiz-adv-x="1509" d="M96 735q0 349 179.5 557.5t478.5 208.5q296 0 475.5 -208.5t179.5 -557.5q0 -228 -79 -400.5t-228 -267t-348 -94.5q-301 0 -479.5 207.5t-178.5 554.5zM299 735q0 -277 122 -440.5t333 -163.5q207 0 329.5 162t122.5 442q0 278 -121 441t-331 163q-208 0 -331.5 -161 t-123.5 -443zM463 1624l201 240h178l200 -240h-133l-157 160l-158 -160h-131z" />
<glyph unicode="&#xd5;" horiz-adv-x="1509" d="M96 735q0 349 179.5 557.5t478.5 208.5q296 0 475.5 -208.5t179.5 -557.5q0 -228 -79 -400.5t-228 -267t-348 -94.5q-301 0 -479.5 207.5t-178.5 554.5zM299 735q0 -277 122 -440.5t333 -163.5q207 0 329.5 162t122.5 442q0 278 -121 441t-331 163q-208 0 -331.5 -161 t-123.5 -443zM438 1624q0 92 51 145.5t142 53.5q50 0 127 -39l53 -29q46 -22 70 -22q28 0 46.5 23t18.5 61v6h119q0 -87 -48.5 -143t-127.5 -56q-37 0 -64.5 7t-74.5 32l-54 31q-41 20 -65 20q-34 0 -54 -22.5t-20 -61.5v-6h-119z" />
<glyph unicode="&#xd6;" horiz-adv-x="1509" d="M96 735q0 349 179.5 557.5t478.5 208.5q296 0 475.5 -208.5t179.5 -557.5q0 -228 -79 -400.5t-228 -267t-348 -94.5q-301 0 -479.5 207.5t-178.5 554.5zM299 735q0 -277 122 -440.5t333 -163.5q207 0 329.5 162t122.5 442q0 278 -121 441t-331 163q-208 0 -331.5 -161 t-123.5 -443zM471 1624v182h193v-182h-193zM844 1624v182h192v-182h-192z" />
<glyph unicode="&#xd7;" horiz-adv-x="1236" d="M70 182l434 451l-434 454l112 119l436 -454l437 454l112 -119l-434 -454l434 -451l-112 -123l-437 455l-436 -455z" />
<glyph unicode="&#xd8;" horiz-adv-x="1540" d="M98 16l162 199q-149 194 -149 520q0 349 179 557.5t478 208.5q256 0 416 -147l153 186l99 -86l-162 -199q143 -198 149 -520q0 -228 -79.5 -400.5t-228.5 -267t-347 -94.5q-254 0 -418 146l-155 -187zM311 735q0 -229 76 -364l682 839q-119 129 -301 129 q-208 0 -332.5 -161.5t-124.5 -442.5zM467 262q119 -131 301 -131q207 0 330 162t123 442q0 230 -74 363z" />
<glyph unicode="&#xd9;" horiz-adv-x="1378" d="M147 553v924h193v-899q0 -236 81 -341.5t269 -105.5q185 0 267.5 105.5t82.5 341.5v899h193v-924q0 -288 -137.5 -434t-405.5 -146q-267 0 -405 145t-138 435zM508 1862h176l188 -238h-147z" />
<glyph unicode="&#xda;" horiz-adv-x="1378" d="M147 553v924h193v-899q0 -236 81 -341.5t269 -105.5q185 0 267.5 105.5t82.5 341.5v899h193v-924q0 -288 -137.5 -434t-405.5 -146q-267 0 -405 145t-138 435zM508 1624l188 238h176l-217 -238h-147z" />
<glyph unicode="&#xdb;" horiz-adv-x="1378" d="M147 553v924h193v-899q0 -236 81 -341.5t269 -105.5q185 0 267.5 105.5t82.5 341.5v899h193v-924q0 -288 -137.5 -434t-405.5 -146q-267 0 -405 145t-138 435zM401 1624l201 240h176l201 -240h-131l-160 160l-156 -160h-131z" />
<glyph unicode="&#xdc;" horiz-adv-x="1378" d="M147 553v924h193v-899q0 -236 81 -341.5t269 -105.5q185 0 267.5 105.5t82.5 341.5v899h193v-924q0 -288 -137.5 -434t-405.5 -146q-267 0 -405 145t-138 435zM408 1624v182h192v-182h-192zM780 1624v182h193v-182h-193z" />
<glyph unicode="&#xdd;" horiz-adv-x="1222" d="M12 1477h207l393 -609l392 609h206l-503 -775v-702h-193v702zM430 1624l186 238h177l-215 -238h-148z" />
<glyph unicode="&#xde;" horiz-adv-x="1148" d="M160 0v1477h192v-260h242q235 0 359 -112t124 -331q0 -433 -483 -442h-242v-332h-192zM352 498h242q131 0 205.5 71t74.5 205q0 129 -72.5 203t-207.5 74h-242v-553z" />
<glyph unicode="&#xdf;" horiz-adv-x="1206" d="M160 0v1061q0 197 114 307.5t320 110.5q196 0 300 -114t110 -339q-135 -7 -219.5 -83t-84.5 -175q0 -21 7.5 -34t17.5 -19.5t39 -22t53 -30.5l53 -37q157 -104 203.5 -166t46.5 -166q0 -164 -103 -242t-312 -78q-113 0 -259 45v164q134 -55 271 -61q114 0 168.5 33.5 t54.5 121.5q0 62 -27.5 98t-124.5 97l-86 55q-9 5 -34.5 21.5t-31.5 20.5l-25.5 17t-23.5 18t-17.5 17t-16.5 19.5t-10.5 20.5t-9 25.5t-3.5 28.5t-2 34q0 132 81.5 234t219.5 132q-6 97 -68.5 154t-170.5 57q-246 0 -252 -268v-1057h-178z" />
<glyph unicode="&#xe0;" horiz-adv-x="1138" d="M94 293q0 170 121 256t358 86h246v16q0 111 -80 175.5t-223 64.5q-180 0 -344 -82v152q192 71 363 71q231 0 344.5 -114t113.5 -345v-573h-174v152q-59 -91 -147.5 -134t-220.5 -43q-161 0 -257.5 84t-99.5 234zM270 303q0 -90 60.5 -141t167.5 -51q143 0 232 98t89 260 v37h-174q-211 0 -293 -45.5t-82 -157.5zM276 1493h185l268 -338h-145z" />
<glyph unicode="&#xe1;" horiz-adv-x="1138" d="M94 293q0 170 121 256t358 86h246v16q0 111 -80 175.5t-223 64.5q-180 0 -344 -82v152q192 71 363 71q231 0 344.5 -114t113.5 -345v-573h-174v152q-59 -91 -147.5 -134t-220.5 -43q-161 0 -257.5 84t-99.5 234zM270 303q0 -90 60.5 -141t167.5 -51q143 0 232 98t89 260 v37h-174q-211 0 -293 -45.5t-82 -157.5zM387 1155l266 340h191l-309 -340h-148z" />
<glyph unicode="&#xe2;" horiz-adv-x="1138" d="M94 293q0 170 121 256t358 86h246v16q0 111 -80 175.5t-223 64.5q-180 0 -344 -82v152q192 71 363 71q231 0 344.5 -114t113.5 -345v-573h-174v152q-59 -91 -147.5 -134t-220.5 -43q-161 0 -257.5 84t-99.5 234zM242 1155l233 340h139l234 -340h-135l-168 221l-172 -221 h-131zM270 303q0 -90 60.5 -141t167.5 -51q143 0 232 98t89 260v37h-174q-211 0 -293 -45.5t-82 -157.5z" />
<glyph unicode="&#xe3;" horiz-adv-x="1138" d="M94 293q0 170 121 256t358 86h246v16q0 111 -80 175.5t-223 64.5q-180 0 -344 -82v152q192 71 363 71q231 0 344.5 -114t113.5 -345v-573h-174v152q-59 -91 -147.5 -134t-220.5 -43q-161 0 -257.5 84t-99.5 234zM229 1155q0 118 48 185.5t137 68.5q72 0 135 -55l53 -49 q37 -37 66 -37q34 0 50 32t19 109h119q0 -48 -8.5 -89.5t-28.5 -80.5t-59 -61.5t-94 -22.5q-70 0 -125 55l-58 50q-18 21 -61 34q-37 0 -54 -32.5t-20 -106.5h-119zM270 303q0 -90 60.5 -141t167.5 -51q143 0 232 98t89 260v37h-174q-211 0 -293 -45.5t-82 -157.5z" />
<glyph unicode="&#xe4;" horiz-adv-x="1138" d="M94 293q0 170 121 256t358 86h246v16q0 111 -80 175.5t-223 64.5q-180 0 -344 -82v152q192 71 363 71q231 0 344.5 -114t113.5 -345v-573h-174v152q-59 -91 -147.5 -134t-220.5 -43q-161 0 -257.5 84t-99.5 234zM262 1155v182h193v-182h-193zM270 303q0 -90 60.5 -141 t167.5 -51q143 0 232 98t89 260v37h-174q-211 0 -293 -45.5t-82 -157.5zM635 1155v182h192v-182h-192z" />
<glyph unicode="&#xe5;" horiz-adv-x="1138" d="M94 293q0 170 121 256t358 86h246v16q0 111 -80 175.5t-223 64.5q-180 0 -344 -82v152q192 71 363 71q231 0 344.5 -114t113.5 -345v-573h-174v152q-59 -91 -147.5 -134t-220.5 -43q-161 0 -257.5 84t-99.5 234zM270 303q0 -90 60.5 -141t167.5 -51q143 0 232 98t89 260 v37h-174q-211 0 -293 -45.5t-82 -157.5zM283 1401q0 101 75.5 174.5t184.5 73.5q108 0 183.5 -71.5t78.5 -176.5q0 -101 -76.5 -173.5t-185.5 -72.5q-108 0 -184 72t-76 174zM399 1401q0 -57 41 -96t103 -39t103.5 38.5t41.5 96.5q0 57 -42.5 97t-102.5 40 q-59 0 -101.5 -38.5t-42.5 -98.5z" />
<glyph unicode="&#xe7;" horiz-adv-x="1036" d="M109 502q0 246 142.5 388t391.5 142q172 0 307 -63v-156q-138 72 -299 78q-168 0 -263 -101t-95 -288q0 -181 91.5 -285t266.5 -104q157 0 299 77v-153q-127 -54 -266 -60q82 -97 82 -170q0 -78 -57.5 -119.5t-167.5 -41.5q-87 0 -168 22v117q47 -23 147 -29 q115 0 115 84q0 45 -68 140q-212 19 -335 158t-123 364z" />
<glyph unicode="&#xe8;" horiz-adv-x="1193" d="M106 494q0 246 141.5 392t379.5 146q213 0 339 -130.5t126 -356.5v-82h-803q12 -168 107.5 -259t271.5 -91q195 0 385 94v-156q-183 -76 -394 -76q-254 0 -403.5 139t-149.5 380zM295 592h623q0 133 -79 216t-210 83q-146 0 -233.5 -77.5t-100.5 -221.5zM317 1493h185 l268 -338h-145z" />
<glyph unicode="&#xe9;" horiz-adv-x="1193" d="M106 494q0 246 141.5 392t379.5 146q213 0 339 -130.5t126 -356.5v-82h-803q12 -168 107.5 -259t271.5 -91q195 0 385 94v-156q-183 -76 -394 -76q-254 0 -403.5 139t-149.5 380zM295 592h623q0 133 -79 216t-210 83q-146 0 -233.5 -77.5t-100.5 -221.5zM451 1155 l266 340h190l-309 -340h-147z" />
<glyph unicode="&#xea;" horiz-adv-x="1193" d="M106 494q0 246 141.5 392t379.5 146q213 0 339 -130.5t126 -356.5v-82h-803q12 -168 107.5 -259t271.5 -91q195 0 385 94v-156q-183 -76 -394 -76q-254 0 -403.5 139t-149.5 380zM295 592h623q0 133 -79 216t-210 83q-146 0 -233.5 -77.5t-100.5 -221.5zM295 1155 l233 340h140l233 -340h-131l-172 221l-172 -221h-131z" />
<glyph unicode="&#xeb;" horiz-adv-x="1193" d="M106 494q0 246 141.5 392t379.5 146q213 0 339 -130.5t126 -356.5v-82h-803q12 -168 107.5 -259t271.5 -91q195 0 385 94v-156q-183 -76 -394 -76q-254 0 -403.5 139t-149.5 380zM295 592h623q0 133 -79 216t-210 83q-146 0 -233.5 -77.5t-100.5 -221.5zM315 1155v182 h193v-182h-193zM688 1155v182h193v-182h-193z" />
<glyph unicode="&#xec;" horiz-adv-x="495" d="M20 1493h185l270 -338h-147zM160 0v1008h176v-1008h-176z" />
<glyph unicode="&#xed;" horiz-adv-x="495" d="M20 1155l267 340h188l-307 -340h-148zM160 0v1008h176v-1008h-176z" />
<glyph unicode="&#xee;" horiz-adv-x="495" d="M-55 1155l233 340h139l234 -340h-133l-170 221l-172 -221h-131zM160 0v1008h176v-1008h-176z" />
<glyph unicode="&#xef;" horiz-adv-x="495" d="M-35 1155v182h193v-182h-193zM160 0v1008h176v-1008h-176zM338 1155v182h192v-182h-192z" />
<glyph unicode="&#xf0;" horiz-adv-x="1196" d="M104 481q0 221 131.5 363.5t342.5 142.5q37 0 106 -10l-217 237l-303 -96l-33 88l268 84l-172 185h215l121 -132l318 99l30 -86l-278 -88l155 -168q128 -136 210.5 -302t82.5 -317q0 -228 -135 -367t-354 -139q-218 0 -353 139t-135 367zM289 481q0 -168 82 -268 t221 -100t222 101t83 267q0 218 -104 342q-71 22 -168 29q-158 0 -247 -97t-89 -274z" />
<glyph unicode="&#xf1;" d="M160 0v1008h176v-158q126 182 344 182q181 0 277 -107.5t96 -316.5v-608h-176v602q0 282 -236 285q-142 0 -222 -84t-83 -234v-569h-176zM293 1155q0 118 48 185.5t136 68.5q70 0 133 -55l54 -49q40 -37 65 -37q35 0 52 32.5t20 108.5h119q0 -48 -9 -89.5t-29.5 -80.5 t-60 -61.5t-94.5 -22.5q-67 0 -125 55l-55 50q-21 21 -64 34q-35 0 -51.5 -32.5t-19.5 -106.5h-119z" />
<glyph unicode="&#xf2;" horiz-adv-x="1202" d="M111 502q0 247 129.5 388.5t357.5 141.5t358.5 -141.5t130.5 -388.5q0 -245 -129.5 -386t-359.5 -141q-227 0 -357 139.5t-130 387.5zM295 502q0 -180 79.5 -284.5t223.5 -104.5q138 0 220.5 104.5t82.5 284.5q0 178 -81.5 283.5t-221.5 105.5q-139 0 -221 -103.5 t-82 -285.5zM373 1493h184l268 -338h-145z" />
<glyph unicode="&#xf3;" horiz-adv-x="1202" d="M111 502q0 247 129.5 388.5t357.5 141.5t358.5 -141.5t130.5 -388.5q0 -245 -129.5 -386t-359.5 -141q-227 0 -357 139.5t-130 387.5zM295 502q0 -180 79.5 -284.5t223.5 -104.5q138 0 220.5 104.5t82.5 284.5q0 178 -81.5 283.5t-221.5 105.5q-139 0 -221 -103.5 t-82 -285.5zM371 1155l266 340h190l-309 -340h-147z" />
<glyph unicode="&#xf4;" horiz-adv-x="1202" d="M111 502q0 247 129.5 388.5t357.5 141.5t358.5 -141.5t130.5 -388.5q0 -245 -129.5 -386t-359.5 -141q-227 0 -357 139.5t-130 387.5zM295 502q0 -180 79.5 -284.5t223.5 -104.5q138 0 220.5 104.5t82.5 284.5q0 178 -81.5 283.5t-221.5 105.5q-139 0 -221 -103.5 t-82 -285.5zM295 1155l233 340h140l233 -340h-131l-172 221l-172 -221h-131z" />
<glyph unicode="&#xf5;" horiz-adv-x="1202" d="M111 502q0 247 129.5 388.5t357.5 141.5t358.5 -141.5t130.5 -388.5q0 -245 -129.5 -386t-359.5 -141q-227 0 -357 139.5t-130 387.5zM287 1155q0 118 48 185.5t136 68.5q68 0 131 -55l53 -49q43 -37 66 -37q35 0 53 32.5t21 108.5h118q0 -48 -9 -89.5t-29 -80.5 t-59.5 -61.5t-94.5 -22.5q-69 0 -127 55l-53 50q-23 21 -66 34q-34 0 -50 -32.5t-19 -106.5h-119zM295 502q0 -180 79.5 -284.5t223.5 -104.5q138 0 220.5 104.5t82.5 284.5q0 178 -81.5 283.5t-221.5 105.5q-139 0 -221 -103.5t-82 -285.5z" />
<glyph unicode="&#xf6;" horiz-adv-x="1202" d="M111 502q0 247 129.5 388.5t357.5 141.5t358.5 -141.5t130.5 -388.5q0 -245 -129.5 -386t-359.5 -141q-227 0 -357 139.5t-130 387.5zM295 502q0 -180 79.5 -284.5t223.5 -104.5q138 0 220.5 104.5t82.5 284.5q0 178 -81.5 283.5t-221.5 105.5q-139 0 -221 -103.5 t-82 -285.5zM315 1155v182h193v-182h-193zM688 1155v182h193v-182h-193z" />
<glyph unicode="&#xf7;" horiz-adv-x="1329" d="M55 500v153h1219v-153h-1219zM547 133v221h233v-221h-233zM547 799v221h233v-221h-233z" />
<glyph unicode="&#xf8;" horiz-adv-x="1232" d="M86 -14l143 161q-104 137 -104 355q0 246 130.5 388t358.5 142q174 0 304 -92l133 150l88 -72l-138 -160q101 -141 101 -356q0 -245 -129 -386t-359 -141q-187 0 -303 91l-133 -150zM311 489q0 -134 37 -204l463 532q-77 74 -197 74q-141 0 -222 -106t-81 -296zM416 186 q67 -67 198 -73q138 0 221 104.5t83 284.5q0 138 -39 217z" />
<glyph unicode="&#xf9;" d="M150 397v611h174v-605q0 -286 235 -286q139 0 222 85t83 234v572h176v-1008h-176v154q-123 -179 -342 -179q-184 0 -278 106.5t-94 315.5zM369 1493h184l268 -338h-145z" />
<glyph unicode="&#xfa;" d="M150 397v611h174v-605q0 -286 235 -286q139 0 222 85t83 234v572h176v-1008h-176v154q-123 -179 -342 -179q-184 0 -278 106.5t-94 315.5zM367 1155l266 340h190l-309 -340h-147z" />
<glyph unicode="&#xfb;" d="M150 397v611h174v-605q0 -286 235 -286q139 0 222 85t83 234v572h176v-1008h-176v154q-123 -179 -342 -179q-184 0 -278 106.5t-94 315.5zM291 1155l233 340h140l233 -340h-131l-172 221l-172 -221h-131z" />
<glyph unicode="&#xfc;" d="M150 397v611h174v-605q0 -286 235 -286q139 0 222 85t83 234v572h176v-1008h-176v154q-123 -179 -342 -179q-184 0 -278 106.5t-94 315.5zM311 1155v182h193v-182h-193zM684 1155v182h193v-182h-193z" />
<glyph unicode="&#xfd;" horiz-adv-x="1122" d="M43 1008h186l332 -789l332 789h186l-487 -1143q-39 -93 -73 -149.5t-74 -88.5t-82 -42.5t-105 -10.5h-92l-47 139h102q38 0 61 5.5t47.5 25t45.5 56.5t47 100l51 116zM401 1155l267 340h188l-307 -340h-148z" />
<glyph unicode="&#xfe;" horiz-adv-x="1226" d="M160 -461v2099h176v-784q56 90 138.5 134t201.5 44q194 0 315 -147t121 -383q0 -234 -120 -380.5t-316 -146.5q-117 0 -199 41.5t-141 133.5v-611h-176zM336 502q0 -180 77.5 -285.5t219.5 -105.5q139 0 219 104.5t80 286.5q0 181 -80 286t-219 105q-135 0 -216 -103.5 t-81 -287.5z" />
<glyph unicode="&#xff;" horiz-adv-x="1122" d="M43 1008h186l332 -789l332 789h186l-487 -1143q-39 -93 -73 -149.5t-74 -88.5t-82 -42.5t-105 -10.5h-92l-47 139h102q38 0 61 5.5t47.5 25t45.5 56.5t47 100l51 116zM279 1155v182h192v-182h-192zM651 1155v182h193v-182h-193z" />
<glyph unicode="&#x178;" horiz-adv-x="1222" d="M12 1477h207l393 -609l392 609h206l-503 -775v-702h-193v702zM328 1624v182h192v-182h-192zM700 1624v182h193v-182h-193z" />
<glyph unicode="&#x2c6;" horiz-adv-x="780" d="M86 1135l233 340h140l233 -340h-133l-170 221l-172 -221h-131z" />
<glyph unicode="&#x2dc;" horiz-adv-x="886" d="M129 1178q0 118 48 185.5t136 68.5q68 0 133 -56l54 -49q40 -37 65 -37q34 0 51.5 33t20.5 109h119q0 -48 -9 -89.5t-29.5 -80.5t-60 -61.5t-94.5 -22.5q-67 0 -125 55l-55 49q-23 23 -64 35q-35 0 -51.5 -32.5t-19.5 -106.5h-119z" />
<glyph unicode="&#x2000;" horiz-adv-x="975" />
<glyph unicode="&#x2001;" horiz-adv-x="1950" />
<glyph unicode="&#x2002;" horiz-adv-x="975" />
<glyph unicode="&#x2003;" horiz-adv-x="1950" />
<glyph unicode="&#x2004;" horiz-adv-x="650" />
<glyph unicode="&#x2005;" horiz-adv-x="487" />
<glyph unicode="&#x2006;" horiz-adv-x="325" />
<glyph unicode="&#x2007;" horiz-adv-x="325" />
<glyph unicode="&#x2008;" horiz-adv-x="243" />
<glyph unicode="&#x2009;" horiz-adv-x="390" />
<glyph unicode="&#x200a;" horiz-adv-x="108" />
<glyph unicode="&#x2010;" horiz-adv-x="831" d="M160 430v148h512v-148h-512z" />
<glyph unicode="&#x2011;" horiz-adv-x="831" d="M160 430v148h512v-148h-512z" />
<glyph unicode="&#x2012;" horiz-adv-x="831" d="M160 430v148h512v-148h-512z" />
<glyph unicode="&#x2013;" horiz-adv-x="1024" d="M160 430v148h704v-148h-704z" />
<glyph unicode="&#x2014;" horiz-adv-x="2048" d="M160 430v148h1728v-148h-1728z" />
<glyph unicode="&#x2018;" horiz-adv-x="522" d="M127 901v154l156 288h123l-78 -288v-154h-201z" />
<glyph unicode="&#x2019;" horiz-adv-x="512" d="M111 920l77 286v137h199v-137l-156 -286h-120z" />
<glyph unicode="&#x201a;" horiz-adv-x="514" d="M111 -213l77 287v153h201v-153l-156 -287h-122z" />
<glyph unicode="&#x201c;" horiz-adv-x="911" d="M127 901v154l156 288h123l-78 -288v-154h-201zM516 901v154l156 288h123l-78 -288v-154h-201z" />
<glyph unicode="&#x201d;" horiz-adv-x="911" d="M115 901l78 287v155h200v-155l-155 -287h-123zM504 901l78 287v155h200v-155l-155 -287h-123z" />
<glyph unicode="&#x201e;" horiz-adv-x="903" d="M111 -213l77 287v153h201v-153l-156 -287h-122zM500 -213l78 287v153h200v-153l-155 -287h-123z" />
<glyph unicode="&#x2022;" horiz-adv-x="675" d="M72 774q0 112 78 191t188 79t188 -79t78 -191t-78 -191t-188 -79t-188 79t-78 191z" />
<glyph unicode="&#x2026;" horiz-adv-x="1560" d="M160 0v227h200v-227h-200zM680 0v227h201v-227h-201zM1200 0v227h201v-227h-201z" />
<glyph unicode="&#x202f;" horiz-adv-x="390" />
<glyph unicode="&#x2039;" horiz-adv-x="632" d="M66 502v73l444 377v-172l-285 -241l285 -242v-170z" />
<glyph unicode="&#x203a;" horiz-adv-x="634" d="M123 127v170l287 242l-287 241v172l446 -377v-73z" />
<glyph unicode="&#x205f;" horiz-adv-x="487" />
<glyph unicode="&#x20ac;" horiz-adv-x="1232" d="M41 512l53 123h133q0 31 -2 45q0 14 -1 46t-1 48q0 30 4 66h-186l53 121h148q38 253 186 396.5t371 143.5q187 0 352 -139v-209q-83 101 -164 145.5t-180 44.5q-149 0 -245 -97t-128 -285h549l-51 -121h-512q0 -8 -1 -23t-1 -24q0 -11 -1 -42t-1 -49q0 -27 4 -67h424 l-53 -123h-357q29 -185 126 -285t247 -100q97 0 176.5 45.5t167.5 149.5v-209q-165 -140 -352 -140q-223 0 -369.5 140.5t-187.5 398.5h-201z" />
<glyph unicode="&#x2122;" horiz-adv-x="1482" d="M78 1382v95h491v-95h-192v-477h-109v477h-190zM676 905v572h164l166 -254l155 254h162v-572h-106v477l-187 -299h-51l-193 299v-477h-110z" />
<glyph unicode="&#xe000;" horiz-adv-x="1003" d="M0 0v1004h1004v-1004h-1004z" />
</font>
</defs>
</svg>
